<?xml version="1.0" encoding="UTF-8"?>
<svg id="Preview" data-name="Layer 1" xmlns="http://www.w3.org/2000/svg" viewBox="0 0 1200 628">

    
    
    
        
    
    
  <defs>
    <style>

      .date {
        font-family: Figtree;
        font-size: 23.02px;
        font-variation-settings: 'wght' 300;
        font-weight: 700;
        letter-spacing: .2em;
        text-transform: uppercase;
      }

      .date, .grey {
        fill: #4d4d4d;
      }

      .description {
        font-family: Figtree-Bold, Figtree;
        font-variation-settings: 'wght' 700;
        font-weight: 700;
        letter-spacing: -.01em;
        font-size: 54px;
      }

      .grey, .cls-7, .paper, .cls-9 {
        stroke-width: 0px;
      }

      .cls-7 {
        fill: #ffae2c;
      }

      .paper {
        fill: #fff9ed;
      }

      .cls-9 {
        fill: #ff0e69;
      }
    </style>
  </defs>
  <rect class="paper" width="1200" height="628"/>
  <rect class="grey" width="300" height="628"/>

  <text class="date" transform="translate(380 128)">
    <tspan x="0" y="0">JUL 7, 2023</tspan>
  </text>
  <text class="description" transform="translate(380 220)">
      
        <tspan x="0" y="0">Social to Antisocial</tspan>
          
    </text>
  <g>
    <g>
      <path class="cls-7" d="M53,193.33h0c.62-.54,1.27-1.04,1.93-1.51.03-.02.05-.04.08-.06.65-.46,1.31-.89,1.99-1.29.04-.02.07-.04.11-.07.68-.4,1.37-.77,2.07-1.11.03-.01.06-.03.09-.04.72-.34,1.44-.66,2.18-.94,0,0,0,0,0,0,7.56-2.88,16.12-2.53,23.47,1.11,0,0,.01,0,.02.01.73.36,1.44.75,2.14,1.18.01,0,.02.01.03.02.7.43,1.39.89,2.06,1.38h0s1.38,1.02,1.38,1.02c1.04-.86,2.14-1.61,3.26-2.3.05-.03.11-.07.16-.1,3.08-1.87,6.42-3.13,9.86-3.76.06-.01.13-.02.19-.04.66-.12,1.32-.21,1.98-.28.05,0,.1,0,.15-.01,2.77-.28,5.56-.18,8.3.32.04,0,.09.01.13.02.65.12,1.3.27,1.95.43.07.02.14.04.21.06,2.72.72,5.35,1.84,7.79,3.35h.1c7.88-23.41-5.41-48.23-5.41-48.23,0,0,1.47,9.77-1.03,14.29-2.49,4.52-7.2,6.34-11.98,6.25-4.78-.09-7.94-5.7-8.74-7.32-4.09-8.22,4.07-18.65,4.13-18.77,5.56-12.17-6.99-20.66-6.99-20.66,0,0,4.68,10.97-4.39,15.21-2.72,1.27-7.33,2.32-12.07,6.4-5.51,4.74-4.73,8.88-4.73,16.9,0,8.02-2.97,15.04-8.12,15.04-5.16,0-6.78-5.9-7.15-10.04-.29-3.26,1.31-9.21,1.31-9.21-20.49,25.26-6.58,42.51-6.48,42.75h.01Z"/>
      <path class="cls-9" d="M129.49,194.58c-10.63-10.36-27.56-10.96-38.95-1.53-11.39-9.43-28.31-8.83-38.95,1.53-5.46,5.33-8.47,12.39-8.47,19.89s3.01,14.57,8.47,19.89c3.04,2.99,37.83,36.94,38.18,37.28l.78.76.77-.76c2.41-2.38,22.96-22.44,32.84-32.08,3.16-3.09,5.25-5.12,5.32-5.19,5.45-5.26,8.46-12.28,8.48-19.78.02-7.56-2.99-14.66-8.47-20.01Z"/>
      <path class="paper" d="M99.14,220.81c.55.71.41,1.73-.31,2.27-.3.22-.65.33-1,.33-.5,0-.99-.22-1.31-.64l-8.66-11.18,8.65-11.37c.55-.72,1.58-.86,2.3-.33.73.54.88,1.55.33,2.27l-7.16,9.41,7.15,9.23Z"/>
      <path class="paper" d="M113.85,200.38l-5.99,23.04c-.19.73-.86,1.22-1.59,1.22-.13,0-.27-.02-.41-.05-.88-.22-1.41-1.11-1.19-1.97l5.99-23.04c.22-.87,1.12-1.39,2-1.17.88.22,1.41,1.11,1.19,1.97Z"/>
      <path class="paper" d="M121.99,222.78c-.32.42-.81.64-1.31.64-.35,0-.7-.11-1-.33-.72-.54-.86-1.56-.31-2.27l7.15-9.23-7.16-9.41c-.55-.72-.4-1.73.33-2.27.73-.54,1.76-.39,2.3.33l8.65,11.37-8.66,11.18Z"/>
    </g>
    <g>
      <polygon class="paper" points="152.18 209.61 160.61 209.61 160.61 216.82 163.38 216.82 163.38 200.32 160.61 200.32 160.61 207.11 152.18 207.11 152.18 200.32 149.41 200.32 149.41 216.82 152.18 216.82 152.18 209.61"/>
      <polygon class="paper" points="170.13 216.82 177.74 216.82 177.74 214.32 170.13 214.32 170.13 209.66 176.78 209.66 176.78 207.21 170.13 207.21 170.13 202.82 177.67 202.82 177.67 200.32 170.13 200.32 169.56 200.32 167.36 200.32 167.36 216.82 169.56 216.82 170.13 216.82"/>
      <path class="paper" d="M184.25,212.77h7.22l1.6,4.05h2.94l-6.7-16.5h-2.94l-6.68,16.5h2.94l1.6-4.05ZM187.86,203.65l2.65,6.69h-5.3l2.65-6.69Z"/>
      <path class="paper" d="M200.98,210.74h2.94l3.57,6.08h3.13l-3.97-6.6c.13-.05.26-.1.38-.16.91-.45,1.62-1.06,2.14-1.85.52-.78.78-1.69.78-2.71s-.25-1.93-.74-2.71c-.49-.79-1.18-1.4-2.06-1.85-.88-.45-1.89-.66-3.04-.65l-3.4.02h-2.51v16.5h2.78v-6.08ZM206.24,203.57c.57.5.86,1.15.86,1.93,0,.52-.13.98-.4,1.39-.26.41-.61.73-1.03.97-.42.24-.91.35-1.45.35h-3.25v-5.4h3.04c.91,0,1.65.25,2.23.75Z"/>
      <polygon class="paper" points="211.55 202.82 216.7 202.82 216.7 216.82 219.47 216.82 219.47 202.82 224.62 202.82 224.62 200.32 211.55 200.32 211.55 202.82"/>
      <path class="paper" d="M150.59,236.53c.55.36,1.19.64,1.91.85.73.2,1.53.31,2.41.31,1.29,0,2.39-.2,3.29-.61.9-.41,1.58-.97,2.05-1.7s.69-1.56.69-2.5c0-1.07-.42-2.04-1.24-2.92-.83-.88-1.99-1.5-3.49-1.86l-2.06-.49c-.7-.17-1.26-.43-1.66-.77-.41-.34-.61-.81-.61-1.43,0-.75.26-1.34.78-1.77.52-.42,1.23-.64,2.14-.64s1.61.2,2.2.61c.59.41,1,.93,1.24,1.56l2.68-.85c-.26-.71-.65-1.34-1.17-1.9-.53-.56-1.19-1-2-1.32-.81-.32-1.74-.48-2.81-.48-1.9,0-3.36.43-4.38,1.28-1.02.86-1.53,2.05-1.53,3.6,0,.82.18,1.52.54,2.12.36.6.85,1.09,1.48,1.48.63.39,1.34.69,2.12.9l2.06.52c.86.22,1.55.53,2.06.93.51.4.77.92.77,1.54,0,.69-.3,1.25-.91,1.67-.61.42-1.43.64-2.47.64-.89-.02-1.64-.24-2.25-.68-.61-.44-1.01-.95-1.22-1.53l-2.73.83c.14.49.4.95.75,1.4s.81.85,1.36,1.21Z"/>
      <path class="paper" d="M175.79,236.6c1.25-.72,2.23-1.73,2.94-3.02.71-1.29,1.06-2.77,1.06-4.43s-.36-3.14-1.06-4.42c-.71-1.28-1.7-2.29-2.97-3.02-1.27-.73-2.72-1.1-4.37-1.1s-3.12.37-4.38,1.1c-1.26.73-2.25,1.74-2.98,3.02-.73,1.28-1.09,2.76-1.09,4.44s.36,3.12,1.09,4.41c.73,1.29,1.73,2.29,3,3.02s2.74,1.08,4.4,1.08,3.09-.36,4.34-1.08ZM166.51,232.28c-.49-.9-.73-1.95-.73-3.12s.24-2.2.72-3.11c.48-.91,1.14-1.62,1.99-2.13.84-.51,1.81-.77,2.9-.77s2.07.26,2.91.78c.84.52,1.5,1.23,1.97,2.13.48.9.72,1.94.72,3.12s-.24,2.2-.71,3.1c-.47.9-1.12,1.61-1.95,2.13-.83.52-1.79.78-2.87.78s-2.08-.26-2.93-.78c-.85-.52-1.52-1.23-2.01-2.13Z"/>
      <path class="paper" d="M182.5,220.91v10.47c0,1.27.28,2.39.83,3.35.55.96,1.32,1.7,2.32,2.23s2.16.79,3.48.79,2.56-.26,3.58-.79c1.01-.53,1.79-1.27,2.34-2.23.55-.96.83-2.07.83-3.35v-10.47h-2.78v10.47c0,.77-.16,1.44-.48,2.01-.32.57-.78,1.02-1.38,1.34-.6.32-1.29.48-2.07.48s-1.44-.16-2.03-.48c-.59-.32-1.05-.77-1.38-1.34-.33-.57-.49-1.24-.49-2.01v-10.47h-2.78Z"/>
      <polygon class="paper" points="209.97 234.91 202.39 234.91 202.39 220.91 199.61 220.91 199.61 237.41 201.55 237.41 202.39 237.41 209.97 237.41 209.97 234.91"/>
      <polygon class="paper" points="163.07 241.53 162.86 241.49 157.64 249.13 152.38 241.49 152.18 241.52 152.18 241.49 149.41 241.49 149.41 257.99 152.18 257.99 152.18 245.9 157.62 253.75 163.07 245.83 163.07 257.99 165.85 257.99 165.85 241.49 163.07 241.49 163.07 241.53"/>
      <path class="paper" d="M177.53,241.49h-2.8l-6.68,16.5h2.94l1.6-4.05h7.22l1.6,4.05h2.94l-6.7-16.5h-.14ZM173.56,251.51l2.65-6.69,2.65,6.69h-5.3Z"/>
      <path class="paper" d="M196.9,254.24c-.49.49-1.04.87-1.65,1.14-.61.28-1.27.41-1.97.41-1.07,0-2.02-.26-2.86-.78-.84-.52-1.49-1.23-1.96-2.15-.47-.91-.71-1.96-.71-3.14s.23-2.22.71-3.12c.47-.9,1.12-1.61,1.94-2.13.82-.52,1.76-.78,2.81-.78.69,0,1.34.13,1.96.38.62.25,1.18.61,1.66,1.07.49.46.87.99,1.16,1.59l2.54-1.01c-.4-.9-.97-1.68-1.71-2.36-.74-.68-1.59-1.21-2.55-1.59-.96-.38-1.98-.58-3.06-.58-1.61,0-3.04.37-4.28,1.1-1.24.73-2.22,1.74-2.93,3.02-.71,1.28-1.06,2.75-1.06,4.42s.36,3.14,1.06,4.42c.71,1.28,1.69,2.29,2.94,3.02,1.25.73,2.68,1.1,4.3,1.1,1.1,0,2.14-.2,3.11-.59s1.83-.95,2.56-1.66c.73-.71,1.3-1.54,1.7-2.46l-2.54-1.01c-.29.64-.67,1.21-1.16,1.7Z"/>
      <polygon class="paper" points="214.47 248.28 206.05 248.28 206.05 241.49 203.27 241.49 203.27 257.99 206.05 257.99 206.05 250.78 214.47 250.78 214.47 257.99 217.25 257.99 217.25 241.49 214.47 241.49 214.47 248.28"/>
      <rect class="paper" x="221.22" y="241.49" width="2.78" height="16.5"/>
      <polygon class="paper" points="239.74 253.47 230.84 241.49 227.97 241.49 227.97 257.99 230.74 257.99 230.74 245.87 239.74 257.99 242.52 257.99 242.52 241.49 239.74 241.49 239.74 253.47"/>
      <polygon class="paper" points="249.26 255.49 249.26 250.82 255.92 250.82 255.92 248.37 249.26 248.37 249.26 243.99 256.8 243.99 256.8 241.49 249.26 241.49 248.69 241.49 246.49 241.49 246.49 257.99 248.69 257.99 249.26 257.99 256.87 257.99 256.87 255.49 249.26 255.49"/>
    </g>
  </g>
</svg>