<svg xmlns="http://www.w3.org/2000/svg" version="1.1" xmlns:xlink="http://www.w3.org/1999/xlink" xmlns:svgjs="http://svgjs.com/svgjs" width="300" height="300"><svg id="SvgjsSvg1000" data-name="Layer 1" xmlns="http://www.w3.org/2000/svg" viewBox="0 0 300 300">
  <defs>
    <style>
      .cls-1 {
        fill: #ffae2c;
      }

      .cls-1, .cls-2 {
        stroke-width: 0px;
      }

      .cls-2 {
        fill: #ff0e69;
      }
    </style>
  </defs>
  <path class="cls-1" d="M82.65,148.19h0c1.12-.96,2.27-1.86,3.46-2.71.05-.03.09-.07.14-.1,1.16-.83,2.35-1.6,3.56-2.32.07-.04.13-.08.2-.12,1.22-.72,2.45-1.38,3.71-1.99.05-.03.11-.05.16-.08,1.29-.62,2.59-1.18,3.91-1.69,0,0,0,0,0,0,13.56-5.17,28.91-4.53,42.1,2,.01,0,.02.01.04.02,1.3.65,2.58,1.35,3.84,2.12.02.01.04.02.06.04,1.26.77,2.49,1.59,3.7,2.48h0s2.47,1.83,2.47,1.83c1.87-1.54,3.84-2.89,5.85-4.13.1-.06.19-.12.29-.17,5.52-3.36,11.52-5.61,17.69-6.74.11-.02.22-.04.34-.06,1.18-.21,2.37-.38,3.56-.51.09,0,.17-.02.26-.02,4.97-.51,9.98-.32,14.89.58.08.01.16.03.24.04,1.17.22,2.34.48,3.49.78.12.03.25.07.37.1,4.88,1.3,9.59,3.3,13.98,6.01h.18c14.13-41.99-9.71-86.51-9.71-86.51,0,0,2.64,17.53-1.84,25.63-4.47,8.1-12.92,11.36-21.49,11.21-8.57-.16-14.24-10.23-15.68-13.14-7.33-14.75,7.3-33.44,7.4-33.67,9.97-21.83-12.53-37.06-12.53-37.06,0,0,8.39,19.67-7.88,27.28-4.87,2.28-13.14,4.16-21.65,11.47-9.88,8.49-8.48,15.93-8.49,30.31,0,14.38-5.32,26.98-14.57,26.98-9.25,0-12.15-10.58-12.82-18.01-.52-5.85,2.36-16.53,2.36-16.53-36.75,45.32-11.81,76.25-11.62,76.69h.02Z"></path>
  <path class="cls-2" d="M219.86,150.41c-19.07-18.59-49.43-19.66-69.86-2.74-20.43-16.92-50.79-15.85-69.86,2.74-9.8,9.56-15.2,22.22-15.2,35.68s5.4,26.13,15.19,35.68c5.45,5.37,67.85,66.26,68.48,66.88l1.39,1.36,1.38-1.37c4.32-4.26,41.19-40.25,58.91-57.54,5.67-5.53,9.42-9.18,9.55-9.31,9.77-9.43,15.17-22.03,15.2-35.49.04-13.55-5.36-26.3-15.2-35.89ZM165.42,197.47c.99,1.28.74,3.1-.56,4.07-.54.4-1.16.6-1.79.6-.89,0-1.77-.39-2.35-1.14l-15.53-20.05,15.51-20.39c.98-1.28,2.83-1.54,4.13-.58,1.3.96,1.57,2.78.59,4.07l-12.84,16.87,12.82,16.55ZM191.8,160.83l-10.74,41.32c-.34,1.31-1.54,2.19-2.86,2.19-.24,0-.49-.03-.73-.09-1.58-.4-2.53-1.98-2.13-3.54l10.74-41.32c.4-1.56,2.01-2.49,3.59-2.1,1.58.4,2.53,1.98,2.13,3.54ZM206.4,201c-.58.75-1.46,1.14-2.35,1.14-.62,0-1.25-.19-1.79-.6-1.3-.97-1.54-2.8-.56-4.07l12.82-16.55-12.84-16.87c-.98-1.29-.71-3.11.59-4.07,1.3-.96,3.16-.7,4.13.58l15.51,20.39-15.53,20.05Z"></path>
</svg><style>@media (prefers-color-scheme: light) { :root { filter: none; } }
</style></svg>