<?xml version="1.0" encoding="UTF-8"?>
<svg id="Layer_1" data-name="Layer 1" xmlns="http://www.w3.org/2000/svg" viewBox="0 0 200 164">
  <defs>
    <style>
      .cls-1 {
        fill: #ffae2c;
      }

      .cls-1, .cls-2, .cls-3 {
        stroke-width: 0px;
      }

      .cls-2 {
        fill: #fff9ed;
      }

      .cls-3 {
        fill: #ff0e69;
      }
    </style>
  </defs>
  <g id="Logo">
    <path id="Soul" class="cls-1" d="m35.33,81.32h0c.42-.36.85-.7,1.28-1.02.02-.01.03-.03.05-.04.43-.31.87-.6,1.32-.88.02-.01.05-.03.07-.04.45-.27.91-.52,1.38-.75.02,0,.04-.02.06-.03.48-.23.96-.45,1.45-.64,0,0,0,0,0,0,5.04-1.95,10.75-1.71,15.65.75,0,0,0,0,.01,0,.48.24.96.51,1.43.8,0,0,.01,0,.02.01.47.29.93.6,1.38.93h0s.92.69.92.69c.69-.58,1.43-1.09,2.17-1.56.04-.02.07-.04.11-.07,2.05-1.27,4.28-2.12,6.58-2.54.04,0,.08-.02.13-.02.44-.08.88-.14,1.32-.19.03,0,.06,0,.1,0,1.85-.19,3.71-.12,5.53.22.03,0,.06.01.09.02.44.08.87.18,1.3.29.05.01.09.02.14.04,1.81.49,3.56,1.24,5.19,2.27h.07c5.25-15.84-3.61-32.64-3.61-32.64,0,0,.98,6.62-.68,9.67-1.66,3.06-4.8,4.29-7.99,4.23-3.19-.06-5.29-3.86-5.83-4.96-2.72-5.56,2.71-12.62,2.75-12.7,3.7-8.24-4.66-13.98-4.66-13.98,0,0,3.12,7.42-2.93,10.29-1.81.86-4.89,1.57-8.05,4.33-3.67,3.2-3.15,6.01-3.16,11.44,0,5.43-1.98,10.18-5.42,10.18-3.44,0-4.52-3.99-4.76-6.8-.19-2.21.88-6.24.88-6.24-13.66,17.1-4.39,28.77-4.32,28.93h0Z"/>
    <path id="Heart" class="cls-3" d="m86.33,82.16c-7.09-7.01-18.37-7.42-25.96-1.03-7.59-6.38-18.88-5.98-25.96,1.03-3.64,3.61-5.65,8.38-5.65,13.46s2.01,9.86,5.64,13.46c2.03,2.03,25.22,25,25.45,25.23l.52.51.51-.52c1.61-1.61,15.31-15.19,21.9-21.71,2.11-2.09,3.5-3.47,3.55-3.51,3.63-3.56,5.64-8.31,5.65-13.39.01-5.11-1.99-9.92-5.65-13.54Z"/>
    <g id="Machine">
      <path class="cls-2" d="m66.09,99.91c.37.48.27,1.17-.21,1.54-.2.15-.43.22-.66.22-.33,0-.66-.15-.87-.43l-5.77-7.56,5.77-7.69c.36-.48,1.05-.58,1.54-.22.48.36.58,1.05.22,1.54l-4.77,6.37,4.76,6.25Z"/>
      <path class="cls-2" d="m75.9,86.09l-3.99,15.59c-.13.5-.57.83-1.06.83-.09,0-.18-.01-.27-.03-.59-.15-.94-.75-.79-1.33l3.99-15.59c.15-.59.75-.94,1.33-.79.59.15.94.75.79,1.33Z"/>
      <path class="cls-2" d="m81.32,101.24c-.22.28-.54.43-.87.43-.23,0-.47-.07-.66-.22-.48-.37-.57-1.06-.21-1.54l4.76-6.25-4.77-6.37c-.36-.48-.26-1.17.22-1.54.48-.36,1.17-.26,1.54.22l5.77,7.69-5.77,7.56Z"/>
    </g>
  </g>
  <g id="Text">
    <polygon id="H" class="cls-2" points="101.46 92.33 107.07 92.33 107.07 97.21 108.92 97.21 108.92 86.04 107.07 86.04 107.07 90.64 101.46 90.64 101.46 86.04 99.61 86.04 99.61 97.21 101.46 97.21 101.46 92.33"/>
    <polygon id="E" class="cls-2" points="113.42 97.21 118.49 97.21 118.49 95.52 113.42 95.52 113.42 92.36 117.86 92.36 117.86 90.7 113.42 90.7 113.42 87.73 118.45 87.73 118.45 86.04 113.42 86.04 113.04 86.04 111.57 86.04 111.57 97.21 113.04 97.21 113.42 97.21"/>
    <path id="A" class="cls-2" d="m122.83,94.47h4.82l1.07,2.74h1.96l-4.47-11.17h-1.96l-4.45,11.17h1.96l1.07-2.74Zm2.41-6.17l1.77,4.53h-3.53l1.77-4.53Z"/>
    <path id="R" class="cls-2" d="m133.98,93.1h1.96l2.38,4.12h2.09l-2.64-4.46c.08-.04.17-.07.25-.11.61-.3,1.08-.72,1.43-1.25.35-.53.52-1.14.52-1.83s-.17-1.3-.49-1.83c-.33-.53-.79-.95-1.37-1.25-.58-.3-1.26-.45-2.03-.44l-2.27.02h-1.68v11.17h1.85v-4.12Zm3.51-4.85c.38.34.57.78.57,1.31,0,.35-.09.66-.26.94-.18.28-.4.49-.69.65-.28.16-.6.24-.97.24h-2.17v-3.65h2.03c.61,0,1.1.17,1.48.51Z"/>
    <polygon id="T" class="cls-2" points="141.04 87.73 144.46 87.73 144.46 97.21 146.32 97.21 146.32 87.73 149.75 87.73 149.75 86.04 141.04 86.04 141.04 87.73"/>
    <path id="S" class="cls-2" d="m100.4,110.55c.37.24.79.44,1.28.57.48.14,1.02.21,1.6.21.86,0,1.59-.14,2.19-.41.6-.28,1.05-.66,1.36-1.15.31-.49.46-1.05.46-1.69,0-.72-.28-1.38-.83-1.98-.55-.6-1.33-1.02-2.33-1.26l-1.37-.33c-.47-.12-.84-.29-1.11-.52-.27-.23-.41-.55-.41-.97,0-.51.17-.91.52-1.2.35-.29.82-.43,1.43-.43s1.07.14,1.47.41c.39.28.67.63.83,1.05l1.79-.57c-.17-.48-.43-.91-.78-1.28-.35-.38-.8-.68-1.33-.89-.54-.22-1.16-.33-1.87-.33-1.27,0-2.24.29-2.92.87-.68.58-1.02,1.39-1.02,2.43,0,.55.12,1.03.36,1.44.24.4.57.74.99,1,.42.27.89.47,1.41.61l1.37.35c.57.15,1.03.36,1.37.63.34.27.51.62.51,1.04,0,.47-.2.85-.61,1.13-.4.29-.95.43-1.64.43-.6-.01-1.1-.16-1.5-.46-.4-.3-.68-.64-.81-1.04l-1.82.56c.1.33.26.65.5.95.24.3.54.58.91.82Z"/>
    <path id="O" class="cls-2" d="m117.19,110.6c.83-.49,1.49-1.17,1.96-2.04.47-.87.71-1.87.71-3s-.24-2.12-.71-2.99c-.47-.87-1.13-1.55-1.98-2.04-.85-.49-1.82-.74-2.91-.74s-2.08.25-2.92.74-1.5,1.17-1.99,2.04c-.48.87-.73,1.87-.73,3.01s.24,2.11.73,2.98c.48.87,1.15,1.55,2,2.04s1.83.73,2.94.73,2.06-.24,2.9-.73Zm-6.19-2.93c-.32-.61-.49-1.32-.49-2.11s.16-1.49.48-2.11c.32-.62.76-1.1,1.32-1.44.56-.35,1.21-.52,1.93-.52s1.38.17,1.94.53,1,.83,1.32,1.44c.32.61.48,1.32.48,2.11s-.16,1.49-.47,2.1c-.31.61-.75,1.09-1.3,1.44-.55.35-1.19.53-1.91.53s-1.39-.18-1.95-.53c-.57-.35-1.02-.83-1.34-1.44Z"/>
    <path id="U" class="cls-2" d="m121.67,99.97v7.08c0,.86.18,1.62.55,2.27.37.65.88,1.15,1.55,1.51.66.36,1.44.53,2.32.53s1.71-.18,2.39-.53c.68-.36,1.2-.86,1.56-1.51.37-.65.55-1.4.55-2.27v-7.08h-1.85v7.08c0,.52-.11.98-.32,1.36-.21.39-.52.69-.92.91-.4.22-.86.33-1.38.33s-.96-.11-1.36-.33c-.39-.22-.7-.52-.92-.91-.22-.39-.33-.84-.33-1.36v-7.08h-1.85Z"/>
    <polygon id="L" class="cls-2" points="139.98 109.45 134.92 109.45 134.92 99.97 133.07 99.97 133.07 111.14 134.37 111.14 134.92 111.14 139.98 111.14 139.98 109.45"/>
    <polygon id="M" class="cls-2" points="108.72 113.93 108.57 113.9 105.09 119.07 101.58 113.9 101.46 113.93 101.46 113.9 99.61 113.9 99.61 125.07 101.46 125.07 101.46 116.89 105.08 122.2 108.72 116.84 108.72 125.07 110.57 125.07 110.57 113.9 108.72 113.9 108.72 113.93"/>
    <path id="A-2" data-name="A" class="cls-2" d="m118.35,113.9h-1.87l-4.45,11.17h1.96l1.07-2.74h4.82l1.07,2.74h1.96l-4.47-11.17h-.1Zm-2.64,6.78l1.77-4.53,1.77,4.53h-3.53Z"/>
    <path id="C" class="cls-2" d="m131.26,122.53c-.32.33-.69.59-1.1.77-.41.19-.85.28-1.32.28-.71,0-1.35-.18-1.91-.53-.56-.35-.99-.84-1.31-1.45-.31-.62-.47-1.32-.47-2.12s.16-1.5.47-2.11c.31-.61.74-1.09,1.29-1.44.55-.35,1.17-.53,1.87-.53.46,0,.89.09,1.31.26.41.17.78.41,1.11.73.32.31.58.67.77,1.08l1.69-.69c-.27-.61-.65-1.14-1.14-1.6-.49-.46-1.06-.82-1.7-1.08-.64-.26-1.32-.39-2.04-.39-1.07,0-2.03.25-2.86.74-.83.49-1.48,1.17-1.95,2.04-.47.87-.71,1.86-.71,2.99s.24,2.12.71,2.99c.47.87,1.13,1.55,1.96,2.04.83.49,1.79.74,2.86.74.73,0,1.42-.13,2.07-.4.65-.27,1.22-.64,1.71-1.12.49-.48.87-1.04,1.13-1.67l-1.69-.69c-.19.44-.45.82-.77,1.15Z"/>
    <polygon id="H-2" data-name="H" class="cls-2" points="142.98 118.5 137.37 118.5 137.37 113.9 135.52 113.9 135.52 125.07 137.37 125.07 137.37 120.19 142.98 120.19 142.98 125.07 144.83 125.07 144.83 113.9 142.98 113.9 142.98 118.5"/>
    <rect id="I" class="cls-2" x="147.48" y="113.9" width="1.85" height="11.17"/>
    <polygon id="N" class="cls-2" points="159.83 122.01 153.89 113.9 151.98 113.9 151.98 125.07 153.83 125.07 153.83 116.87 159.83 125.07 161.68 125.07 161.68 113.9 159.83 113.9 159.83 122.01"/>
    <polygon id="E-2" data-name="E" class="cls-2" points="166.18 123.38 166.18 120.22 170.61 120.22 170.61 118.56 166.18 118.56 166.18 115.59 171.2 115.59 171.2 113.9 166.18 113.9 165.79 113.9 164.33 113.9 164.33 125.07 165.79 125.07 166.18 125.07 171.25 125.07 171.25 123.38 166.18 123.38"/>
  </g>
</svg>